<?xml version="1.0" encoding="utf-8" ?><svg xmlns="http://www.w3.org/2000/svg" xmlns:xlink="http://www.w3.org/1999/xlink" width="1024" height="1024" viewBox="0 0 1024 1024"><path fill="#2563EB" d="M745.562 275.676C743.879 273.532 741.42 270.132 740.453 267.628C723.021 222.784 789.263 199.481 807.413 241.808C815.122 259.786 802.448 282.098 784.203 287.288C772.843 290.519 764.15 288.157 753.814 283.238C744.773 291.501 736.372 300.571 727.618 309.157L680.315 355.481C686.863 364.011 694.029 370.527 700.861 380.338C727.742 418.936 740.056 457.822 742.548 504.291C748.807 504.691 758.875 504.345 765.371 504.331C780.295 504.241 795.219 504.301 810.141 504.509C811.111 501.096 812.107 497.735 813.618 494.447C822.027 476.157 845.172 469.993 862.701 478.384C871.05 482.664 877.811 489.465 880.519 498.604C889.687 529.554 856.953 553.953 829.1 539.85C819.316 534.895 813.821 526.322 810.738 516.003C788.372 515.996 764.399 515.435 742.263 515.708C740.712 540.579 737.431 560.682 728.748 584.417C707.728 641.873 663.646 688.287 608.114 713.647C605.62 714.786 602.441 716.796 599.793 715.864L599.54 714.125C599.524 700.798 599.118 682.058 599.894 669.029C604.394 665.545 614.959 659.884 620.95 655.662C642.94 639.941 661.239 619.616 674.572 596.102C713.389 527.344 700.287 440.316 645.491 384.092C559.117 295.467 411.479 315.884 351.62 424.261C328.232 467.51 322.934 518.263 336.884 565.411C347.946 603.257 375.596 637.838 408.478 659.092C413.631 662.422 419.536 665.487 424.955 668.46C425.369 684.156 424.993 701.574 425 717.411C419.978 715.734 415.832 713.282 411.127 711.107C290.246 655.225 246.57 507.302 317.664 394.627C326.535 380.567 335.831 368.787 347.075 356.111C344.853 353.597 340.833 350.141 338.248 347.674C331.491 341.183 324.688 334.738 317.842 328.34C301.933 313.254 286.416 297.661 270.345 282.774C256.161 290.796 240.44 291.336 227.357 280.681C220.121 274.887 215.535 266.412 214.643 257.185C213.863 248.247 216.664 239.364 222.431 232.49C228.937 224.723 237.869 220.565 247.855 219.705C273.253 217.994 291.876 239.013 284.59 264.181C283.486 267.994 281.587 271.178 279.656 274.637C284.262 280.217 296.961 292.183 302.429 297.538L355.094 348.359C362.381 341.933 370.654 334.676 378.457 328.951C412.78 303.569 453.437 288.144 495.959 284.372C550.821 279.868 609.098 297.53 652.518 331.231C659.237 336.445 665.19 341.786 671.644 347.274C680.092 340.342 694.361 325.777 702.44 317.73C716.557 303.451 730.933 289.431 745.562 275.676Z"/><path fill="#059669" d="M491.843 628.235C503.818 627.662 521.159 628.038 533.392 628.137L533.438 772.993C533.407 785.479 533.441 797.966 533.538 810.451C533.567 816.29 533.899 826.41 533.343 831.952C520.636 831.951 503.911 832.421 491.525 831.721C491.228 822.159 491.566 810.924 491.587 801.212L491.559 745.22L491.478 662.216C491.482 657.723 491.042 630.21 491.843 628.235Z"/><path fill="#059669" d="M543.597 678.695C547.568 678.427 554.164 678.616 558.372 678.596C567.391 678.506 576.41 678.508 585.429 678.6C586.447 687.098 585.585 709.087 585.555 718.253C585.481 740.539 585.808 763.26 585.419 785.483C571.458 785.556 557.496 785.522 543.535 785.381C543.039 780.584 543.297 772.629 543.322 767.611L543.46 737.438C543.521 720.076 542.604 695.41 543.597 678.695Z"/><path fill="#059669" d="M439.738 678.641C451.832 678.118 468.304 678.698 480.98 678.573C481.674 707.477 480.927 736.528 481.011 765.439C481.03 772.104 481.171 778.795 481.071 785.454C469.258 785.706 451.238 785.796 439.671 785.231C439.314 780.078 439.696 771.654 439.745 766.183L439.857 733.882C439.871 717.127 438.774 694.646 439.738 678.641Z"/><path fill="#2563EB" d="M590.18 474.947C608.817 471.978 626.303 484.766 629.121 503.427C631.94 522.088 619.01 539.47 600.327 542.137C581.857 544.774 564.715 532.023 561.929 513.575C559.143 495.126 571.754 477.882 590.18 474.947Z"/><path fill="#2563EB" d="M427.588 474.746C446.215 472.675 462.978 486.138 464.976 504.772C466.973 523.407 453.445 540.117 434.802 542.041C416.263 543.955 399.667 530.518 397.68 511.986C395.694 493.455 409.065 476.806 427.588 474.746Z"/></svg>